<?xml version="1.0" encoding="utf-8"?>
<!-- Generator: Adobe Illustrator 21.1.0, SVG Export Plug-In . SVG Version: 6.00 Build 0)  -->
<svg version="1.1" id="Layer_2" xmlns="http://www.w3.org/2000/svg" xmlns:xlink="http://www.w3.org/1999/xlink" x="0px" y="0px"
	 viewBox="0 0 1920 1080" style="enable-background:new 0 0 1920 1080;" xml:space="preserve">
<style type="text/css">
	.st0{fill:#4C6F1C;}
	.st1{fill:url(#SVGID_1_);}
	.st2{opacity:0.2;}
	.st3{fill:#FCFCFC;}
	.st4{fill:url(#SVGID_2_);}
	.st5{fill:url(#SVGID_3_);}
	.st6{fill:url(#SVGID_4_);}
	.st7{fill:url(#SVGID_5_);}
</style>
<g>
	<g>
		<polygon class="st0" points="302,735.4 553.1,351.1 1383.9,351.1 1635,735.4 		"/>
		
			<radialGradient id="SVGID_1_" cx="690.6006" cy="464.6438" r="420.9452" gradientTransform="matrix(1.7167 0 0 0.577 -217.0538 264.6723)" gradientUnits="userSpaceOnUse">
			<stop  offset="0" style="stop-color:#9ED754"/>
			<stop  offset="1" style="stop-color:#476A19"/>
		</radialGradient>
		<polygon class="st1" points="1564.1,695.9 372.9,695.9 575.1,369.6 1361.9,369.6 		"/>
		<g class="st2">
			<polygon class="st0" points="467.8,695.9 372.9,695.9 575.1,369.6 637.7,369.6 			"/>
			<polygon class="st0" points="650.5,695.9 555.6,695.9 695.8,369.6 758.4,369.6 			"/>
			<polygon class="st0" points="833.2,695.9 738.4,695.9 816.5,369.6 879.1,369.6 			"/>
			<polygon class="st0" points="1015.9,695.9 921.1,695.9 937.2,369.6 999.8,369.6 			"/>
			<polygon class="st0" points="1198.6,695.9 1103.8,695.9 1057.9,369.6 1120.5,369.6 			"/>
			<polygon class="st0" points="1381.4,695.9 1286.5,695.9 1178.6,369.6 1241.2,369.6 			"/>
			<polygon class="st0" points="1564.1,695.9 1469.2,695.9 1299.3,369.6 1361.9,369.6 			"/>
		</g>
	</g>
	<g>
		<path class="st3" d="M1486.4,665.7H450.6l1.2-2l166.9-279.4h699.6l0.4,0.6L1486.4,665.7z M455.2,663.1h1026.6l-165-276.2H620.2
			L455.2,663.1z"/>
		<rect x="967.2" y="385.8" class="st3" width="2.6" height="278.2"/>
		<path class="st3" d="M968.5,540c-28.4,0-53.7-8.5-66.1-22.2c-5.5-6.1-8-12.9-7.3-19.8c2.2-21,34.4-37.5,73.4-37.5
			c39,0,71.2,16.5,73.4,37.5l0,0c0.7,6.9-1.8,13.7-7.3,19.8C1022.2,531.5,996.9,540,968.5,540z M968.5,463.1
			c-37.6,0-68.7,15.4-70.8,35.1c-0.6,6.1,1.7,12.3,6.7,17.8c11.8,13.1,36.4,21.3,64.1,21.3c27.7,0,52.3-8.2,64.1-21.3
			c5-5.5,7.3-11.7,6.7-17.8C1037.2,478.6,1006.1,463.1,968.5,463.1z"/>
		<g>
			<path class="st3" d="M618.3,397.3c-1.7,0-3.4-0.1-5-0.3l-1.9-0.3l7.4-12.4h24.1l0.1,1.2c0.1,1-0.1,2-0.7,3v0
				C639.5,393.4,628.9,397.3,618.3,397.3z M615.6,394.6c0.9,0.1,1.8,0.1,2.7,0.1c10.5,0,19.6-3.9,21.7-7.5l0,0
				c0.1-0.1,0.1-0.2,0.1-0.3h-19.9L615.6,394.6z"/>
			<path class="st3" d="M486.2,665.7h-35.6l14.1-23.5l0.6-0.1c12.4-2,22.3,0.7,25.8,6.7c1.9,3.3,1.8,7.4-0.5,11.5l0,0
				c-0.9,1.7-2.3,3.4-3.9,5.1L486.2,665.7z M455.2,663.1h29.9c1.3-1.4,2.4-2.8,3.1-4.1c1.8-3.3,2-6.3,0.5-8.9
				c-2.9-4.9-11.7-7.2-22.5-5.6L455.2,663.1z"/>
		</g>
		<g>
			<path class="st3" d="M1318.7,397.3c-10.7,0-21.2-3.9-23.9-8.8v0c-0.5-1-0.8-2-0.7-3l0.1-1.2h24.1l7.4,12.4l-1.9,0.3
				C1322.2,397.2,1320.5,397.3,1318.7,397.3z M1297.1,387.2c2,3.6,11.2,7.5,21.7,7.5c0.9,0,1.8,0,2.7-0.1l-4.6-7.7h-19.9
				C1297,387,1297,387.1,1297.1,387.2L1297.1,387.2z"/>
			<path class="st3" d="M1486.4,665.7h-35.6l-0.4-0.4c-1.7-1.7-3-3.4-3.9-5.1l0,0c-2.3-4.1-2.5-8.1-0.5-11.5
				c3.5-6,13.4-8.8,25.8-6.7l0.6,0.1L1486.4,665.7z M1451.9,663.1h29.9l-11.1-18.5c-10.8-1.7-19.7,0.7-22.5,5.6
				c-1.5,2.5-1.3,5.6,0.5,8.9v0C1449.5,660.3,1450.6,661.7,1451.9,663.1z"/>
		</g>
		<g>
			<g>
				<path class="st3" d="M682.2,586.4H497.9L593,427.2h142.5L682.2,586.4z M502.5,583.8h177.8l51.6-154H594.5L502.5,583.8z"/>
				<path class="st3" d="M594.8,547.5h-73.6l55.5-92.9h62L594.8,547.5z M525.8,544.9h67.4l41.4-87.7h-56.4L525.8,544.9z"/>
				<path class="st3" d="M682.5,498.1c-0.7,1.9-4.1,3.4-7.6,3.4s-5.7-1.5-5-3.4c0.7-1.8,4.2-3.3,7.6-3.3
					C680.9,494.8,683.2,496.3,682.5,498.1z"/>
				<path class="st3" d="M695.7,537.9l25.4-75.7l1.1,0.2c16.9,3.2,29.4,10,35.2,19.1c3.3,5.2,4.2,10.9,2.6,16.9l0,0
					c-4.6,17.4-29.6,33.1-62.1,39.1L695.7,537.9z M722.8,465.3l-23.2,69.3c30.5-6.1,53.6-20.7,57.9-36.8l0,0
					c1.4-5.2,0.6-10.2-2.3-14.8C750,474.8,738.2,468.4,722.8,465.3z"/>
			</g>
			<g>
				<g>
					<path class="st3" d="M474,533.3c-0.2,0-0.5-0.1-0.7-0.2c-0.6-0.4-0.8-1.2-0.5-1.8l52.7-88.6c0.4-0.6,1.2-0.8,1.8-0.5
						c0.6,0.4,0.8,1.2,0.5,1.8l-52.7,88.6C474.9,533,474.5,533.3,474,533.3z"/>
					<path class="st3" d="M576.5,458.1h-49.8c-0.7,0-1.3-0.6-1.3-1.3v-13.5c0-0.1,0-0.2,0-0.3l17.5-66c0.2-0.6,0.7-1,1.3-1h32.3
						c0.7,0,1.3,0.6,1.3,1.3s-0.6,1.3-1.3,1.3h-31.3L528,443.5v12h48.5c0.7,0,1.3,0.6,1.3,1.3S577.2,458.1,576.5,458.1z"/>
					<path class="st3" d="M523.8,546.7c-0.7,0-1.3-0.6-1.3-1.3v-78.1c0-0.2,0.1-0.5,0.2-0.7l52.6-89.9c0.3-0.5,0.9-0.8,1.5-0.6
						c0.6,0.2,1,0.7,1,1.3v80.5c0,0.7-0.6,1.3-1.3,1.3c-0.7,0-1.3-0.6-1.3-1.3v-75.7l-50,85.5v77.7
						C525.1,546.1,524.5,546.7,523.8,546.7z"/>
					<path class="st3" d="M523.8,546.7H474c-0.7,0-1.3-0.6-1.3-1.3V532c0-0.1,0-0.2,0-0.3l17.5-64.6c0.2-0.6,0.7-1,1.3-1h32.3
						c0.7,0,1.3,0.6,1.3,1.3c0,0.7-0.6,1.3-1.3,1.3h-31.3l-17.2,63.5v12h48.5c0.7,0,1.3,0.6,1.3,1.3S524.5,546.7,523.8,546.7z"/>
					<path class="st3" d="M491.5,468.6c-0.2,0-0.5-0.1-0.7-0.2c-0.6-0.4-0.8-1.2-0.5-1.8l52.7-89.9c0.4-0.6,1.2-0.8,1.8-0.5
						c0.6,0.4,0.8,1.2,0.5,1.8L492.7,468C492.4,468.4,492,468.6,491.5,468.6z"/>
					<g>
						<g>
							<path class="st3" d="M576.7,449.3h-49.4c-0.2,0-0.3-0.1-0.3-0.3c0-0.2,0.1-0.3,0.3-0.3h49.4c0.2,0,0.3,0.1,0.3,0.3
								C577,449.2,576.9,449.3,576.7,449.3z"/>
							<path class="st3" d="M576.7,442.6h-49.4c-0.2,0-0.3-0.1-0.3-0.3c0-0.2,0.1-0.3,0.3-0.3h49.4c0.2,0,0.3,0.1,0.3,0.3
								C577,442.5,576.9,442.6,576.7,442.6z"/>
							<path class="st3" d="M576.7,435.9h-48.3c-0.2,0-0.3-0.1-0.3-0.3c0-0.2,0.1-0.3,0.3-0.3h48.3c0.2,0,0.3,0.1,0.3,0.3
								C577,435.7,576.9,435.9,576.7,435.9z"/>
							<path class="st3" d="M576.7,429.1h-45.8c-0.2,0-0.3-0.1-0.3-0.3c0-0.2,0.1-0.3,0.3-0.3h45.8c0.2,0,0.3,0.1,0.3,0.3
								C577,429,576.9,429.1,576.7,429.1z"/>
							<path class="st3" d="M576.7,422.4h-44.3c-0.2,0-0.3-0.1-0.3-0.3c0-0.2,0.1-0.3,0.3-0.3h44.3c0.2,0,0.3,0.1,0.3,0.3
								C577,422.2,576.9,422.4,576.7,422.4z"/>
							<path class="st3" d="M576.7,415.7h-42.5c-0.2,0-0.3-0.1-0.3-0.3c0-0.2,0.1-0.3,0.3-0.3h42.5c0.2,0,0.3,0.1,0.3,0.3
								C577,415.5,576.9,415.7,576.7,415.7z"/>
							<path class="st3" d="M576.7,408.9h-40.4c-0.2,0-0.3-0.1-0.3-0.3c0-0.2,0.1-0.3,0.3-0.3h40.4c0.2,0,0.3,0.1,0.3,0.3
								C577,408.8,576.9,408.9,576.7,408.9z"/>
							<path class="st3" d="M576.7,402.2H538c-0.2,0-0.3-0.1-0.3-0.3c0-0.2,0.1-0.3,0.3-0.3h38.7c0.2,0,0.3,0.1,0.3,0.3
								C577,402,576.9,402.2,576.7,402.2z"/>
							<path class="st3" d="M576.7,395.4h-37.3c-0.2,0-0.3-0.1-0.3-0.3c0-0.2,0.1-0.3,0.3-0.3h37.3c0.2,0,0.3,0.1,0.3,0.3
								C577,395.3,576.9,395.4,576.7,395.4z"/>
							<path class="st3" d="M576.7,388.7h-35.3c-0.2,0-0.3-0.1-0.3-0.3c0-0.2,0.1-0.3,0.3-0.3h35.3c0.2,0,0.3,0.1,0.3,0.3
								C577,388.6,576.9,388.7,576.7,388.7z"/>
							<path class="st3" d="M576.7,382h-33.6c-0.2,0-0.3-0.1-0.3-0.3c0-0.2,0.1-0.3,0.3-0.3h33.6c0.2,0,0.3,0.1,0.3,0.3
								C577,381.8,576.9,382,576.7,382z"/>
							<path class="st3" d="M569.4,455.8c-0.2,0-0.3-0.1-0.3-0.3v-77c0-0.2,0.1-0.3,0.3-0.3s0.3,0.1,0.3,0.3v77
								C569.7,455.7,569.6,455.8,569.4,455.8z"/>
							<path class="st3" d="M562.4,455.8c-0.2,0-0.3-0.1-0.3-0.3v-77c0-0.2,0.1-0.3,0.3-0.3c0.2,0,0.3,0.1,0.3,0.3v77
								C562.7,455.7,562.5,455.8,562.4,455.8z"/>
							<path class="st3" d="M555.3,455.8c-0.2,0-0.3-0.1-0.3-0.3v-77c0-0.2,0.1-0.3,0.3-0.3c0.2,0,0.3,0.1,0.3,0.3v77
								C555.7,455.7,555.5,455.8,555.3,455.8z"/>
							<path class="st3" d="M548.3,455.8c-0.2,0-0.3-0.1-0.3-0.3v-77c0-0.2,0.1-0.3,0.3-0.3c0.2,0,0.3,0.1,0.3,0.3v77
								C548.6,455.7,548.5,455.8,548.3,455.8z"/>
							<path class="st3" d="M541.3,455.8c-0.2,0-0.3-0.1-0.3-0.3v-67.1c0-0.2,0.1-0.3,0.3-0.3c0.2,0,0.3,0.1,0.3,0.3v67.1
								C541.6,455.7,541.4,455.8,541.3,455.8z"/>
							<path class="st3" d="M534.2,455.8c-0.2,0-0.3-0.1-0.3-0.3v-37.8c0-0.2,0.1-0.3,0.3-0.3c0.2,0,0.3,0.1,0.3,0.3v37.8
								C534.6,455.7,534.4,455.8,534.2,455.8z"/>
						</g>
						<path class="st3" d="M487.2,483.7c-0.1,0-0.1,0-0.2,0c-0.2-0.1-0.2-0.3-0.1-0.4l52.7-89.9c0.1-0.2,0.3-0.2,0.4-0.1
							c0.2,0.1,0.2,0.3,0.1,0.4l-52.7,89.9C487.4,483.6,487.3,483.7,487.2,483.7z"/>
						<path class="st3" d="M484.1,498c-0.1,0-0.1,0-0.2,0c-0.2-0.1-0.2-0.3-0.1-0.4l52.7-89.9c0.1-0.2,0.3-0.2,0.4-0.1
							c0.2,0.1,0.2,0.3,0.1,0.4l-52.7,89.9C484.3,498,484.2,498,484.1,498z"/>
						<path class="st3" d="M480.9,512.4c-0.1,0-0.1,0-0.2,0c-0.2-0.1-0.2-0.3-0.1-0.4l52.7-89.9c0.1-0.2,0.3-0.2,0.4-0.1
							c0.2,0.1,0.2,0.3,0.1,0.4l-52.7,89.9C481.2,512.3,481.1,512.4,480.9,512.4z"/>
						<g>
							<path class="st3" d="M523.8,539.2h-49.4c-0.2,0-0.3-0.1-0.3-0.3c0-0.2,0.1-0.3,0.3-0.3h49.4c0.2,0,0.3,0.1,0.3,0.3
								C524.2,539,524,539.2,523.8,539.2z"/>
							<path class="st3" d="M523.8,532.4h-49.4c-0.2,0-0.3-0.1-0.3-0.3c0-0.2,0.1-0.3,0.3-0.3h49.4c0.2,0,0.3,0.1,0.3,0.3
								C524.2,532.3,524,532.4,523.8,532.4z"/>
							<path class="st3" d="M523.8,525.7h-48.3c-0.2,0-0.3-0.1-0.3-0.3c0-0.2,0.1-0.3,0.3-0.3h48.3c0.2,0,0.3,0.1,0.3,0.3
								C524.2,525.5,524,525.7,523.8,525.7z"/>
							<path class="st3" d="M523.8,519H478c-0.2,0-0.3-0.1-0.3-0.3c0-0.2,0.1-0.3,0.3-0.3h45.8c0.2,0,0.3,0.1,0.3,0.3
								C524.2,518.8,524,519,523.8,519z"/>
							<path class="st3" d="M523.8,512.2h-44.3c-0.2,0-0.3-0.1-0.3-0.3c0-0.2,0.1-0.3,0.3-0.3h44.3c0.2,0,0.3,0.1,0.3,0.3
								C524.2,512.1,524,512.2,523.8,512.2z"/>
							<path class="st3" d="M523.8,505.5h-42.5c-0.2,0-0.3-0.1-0.3-0.3c0-0.2,0.1-0.3,0.3-0.3h42.5c0.2,0,0.3,0.1,0.3,0.3
								C524.2,505.3,524,505.5,523.8,505.5z"/>
							<path class="st3" d="M523.8,498.7h-40.4c-0.2,0-0.3-0.1-0.3-0.3c0-0.2,0.1-0.3,0.3-0.3h40.4c0.2,0,0.3,0.1,0.3,0.3
								C524.2,498.6,524,498.7,523.8,498.7z"/>
							<path class="st3" d="M523.8,492h-38.7c-0.2,0-0.3-0.1-0.3-0.3c0-0.2,0.1-0.3,0.3-0.3h38.7c0.2,0,0.3,0.1,0.3,0.3
								C524.2,491.9,524,492,523.8,492z"/>
							<path class="st3" d="M523.8,485.3h-37.3c-0.2,0-0.3-0.1-0.3-0.3c0-0.2,0.1-0.3,0.3-0.3h37.3c0.2,0,0.3,0.1,0.3,0.3
								C524.2,485.1,524,485.3,523.8,485.3z"/>
							<path class="st3" d="M523.8,478.5h-35.3c-0.2,0-0.3-0.1-0.3-0.3c0-0.2,0.1-0.3,0.3-0.3h35.3c0.2,0,0.3,0.1,0.3,0.3
								C524.2,478.4,524,478.5,523.8,478.5z"/>
							<path class="st3" d="M523.8,471.8h-33.6c-0.2,0-0.3-0.1-0.3-0.3c0-0.2,0.1-0.3,0.3-0.3h33.6c0.2,0,0.3,0.1,0.3,0.3
								C524.2,471.7,524,471.8,523.8,471.8z"/>
							<path class="st3" d="M516.5,545.7c-0.2,0-0.3-0.1-0.3-0.3v-77c0-0.2,0.1-0.3,0.3-0.3c0.2,0,0.3,0.1,0.3,0.3v77
								C516.8,545.5,516.7,545.7,516.5,545.7z"/>
							<path class="st3" d="M509.5,545.7c-0.2,0-0.3-0.1-0.3-0.3v-77c0-0.2,0.1-0.3,0.3-0.3s0.3,0.1,0.3,0.3v77
								C509.8,545.5,509.6,545.7,509.5,545.7z"/>
							<path class="st3" d="M502.4,545.7c-0.2,0-0.3-0.1-0.3-0.3v-77c0-0.2,0.1-0.3,0.3-0.3s0.3,0.1,0.3,0.3v77
								C502.8,545.5,502.6,545.7,502.4,545.7z"/>
							<path class="st3" d="M495.4,545.7c-0.2,0-0.3-0.1-0.3-0.3v-77c0-0.2,0.1-0.3,0.3-0.3s0.3,0.1,0.3,0.3v77
								C495.7,545.5,495.6,545.7,495.4,545.7z"/>
							<path class="st3" d="M488.4,545.7c-0.2,0-0.3-0.1-0.3-0.3v-67.1c0-0.2,0.1-0.3,0.3-0.3c0.2,0,0.3,0.1,0.3,0.3v67.1
								C488.7,545.5,488.5,545.7,488.4,545.7z"/>
							<path class="st3" d="M481.3,545.7c-0.2,0-0.3-0.1-0.3-0.3v-37.8c0-0.2,0.1-0.3,0.3-0.3s0.3,0.1,0.3,0.3v37.8
								C481.7,545.5,481.5,545.7,481.3,545.7z"/>
						</g>
						<path class="st3" d="M521.5,451.5C521.5,451.5,521.5,451.5,521.5,451.5c-0.3-0.1-0.4-0.2-0.3-0.4l14.3-58.4
							c0-0.2,0.2-0.3,0.4-0.2c0.2,0,0.3,0.2,0.2,0.4l-14.3,58.4C521.8,451.4,521.7,451.5,521.5,451.5z"/>
						<path class="st3" d="M515.6,461.3C515.6,461.3,515.6,461.3,515.6,461.3c-0.3-0.1-0.4-0.2-0.3-0.4l14.3-58.4
							c0-0.2,0.2-0.3,0.4-0.2c0.2,0,0.3,0.2,0.2,0.4l-14.3,58.4C515.9,461.2,515.8,461.3,515.6,461.3z"/>
						<path class="st3" d="M509.7,471.1C509.7,471.1,509.7,471.1,509.7,471.1c-0.3-0.1-0.4-0.2-0.3-0.4l14.3-58.4
							c0-0.2,0.2-0.3,0.4-0.2c0.2,0,0.3,0.2,0.2,0.4L510,470.9C510,471,509.9,471.1,509.7,471.1z"/>
						<path class="st3" d="M503.8,480.9C503.8,480.9,503.8,480.9,503.8,480.9c-0.3-0.1-0.4-0.2-0.3-0.4l14.3-58.4
							c0-0.2,0.2-0.3,0.4-0.2c0.2,0,0.3,0.2,0.2,0.4l-14.3,58.4C504.1,480.8,504,480.9,503.8,480.9z"/>
						<path class="st3" d="M497.9,490.7C497.9,490.7,497.9,490.7,497.9,490.7c-0.3-0.1-0.4-0.2-0.3-0.4l14.3-58.4
							c0-0.2,0.2-0.3,0.4-0.2c0.2,0,0.3,0.2,0.2,0.4l-14.3,58.4C498.2,490.6,498.1,490.7,497.9,490.7z"/>
						<path class="st3" d="M492,500.5C492,500.5,492,500.5,492,500.5c-0.3-0.1-0.4-0.2-0.3-0.4l14.3-58.4c0-0.2,0.2-0.3,0.4-0.2
							c0.2,0,0.3,0.2,0.2,0.4l-14.3,58.4C492.3,500.4,492.2,500.5,492,500.5z"/>
						<path class="st3" d="M486.1,510.3C486.1,510.3,486.1,510.3,486.1,510.3c-0.3-0.1-0.4-0.2-0.3-0.4l14.3-58.4
							c0-0.2,0.2-0.3,0.4-0.2c0.2,0,0.3,0.2,0.2,0.4L486.4,510C486.4,510.2,486.2,510.3,486.1,510.3z"/>
					</g>
					<path class="st3" d="M517.5,467.7c-0.1,0-0.1,0-0.2,0c-0.2-0.1-0.2-0.3-0.1-0.4l52.6-89.9c0.1-0.2,0.3-0.2,0.4-0.1
						c0.2,0.1,0.2,0.3,0.1,0.4l-52.6,89.9C517.7,467.6,517.6,467.7,517.5,467.7z"/>
					<path class="st3" d="M510.8,467.7c-0.1,0-0.1,0-0.2,0c-0.2-0.1-0.2-0.3-0.1-0.4l52.6-89.9c0.1-0.2,0.3-0.2,0.4-0.1
						c0.2,0.1,0.2,0.3,0.1,0.4l-52.6,89.9C511,467.6,510.9,467.7,510.8,467.7z"/>
					<path class="st3" d="M504.1,467.7c-0.1,0-0.1,0-0.2,0c-0.2-0.1-0.2-0.3-0.1-0.4l52.6-89.9c0.1-0.2,0.3-0.2,0.4-0.1
						c0.2,0.1,0.2,0.3,0.1,0.4l-52.6,89.9C504.3,467.6,504.2,467.7,504.1,467.7z"/>
					<path class="st3" d="M497.4,467.7c-0.1,0-0.1,0-0.2,0c-0.2-0.1-0.2-0.3-0.1-0.4l52.6-89.9c0.1-0.2,0.3-0.2,0.4-0.1
						c0.2,0.1,0.2,0.3,0.1,0.4l-52.6,89.9C497.6,467.6,497.5,467.7,497.4,467.7z"/>
				</g>
				<g>
					<path class="st3" d="M527,462.9h-32.9c-0.4,0-0.7-0.3-0.7-0.7s0.3-0.7,0.7-0.7H527c0.4,0,0.7,0.3,0.7,0.7
						S527.3,462.9,527,462.9z"/>
					<path class="st3" d="M530,457.7h-32.9c-0.4,0-0.7-0.3-0.7-0.7s0.3-0.7,0.7-0.7H530c0.4,0,0.7,0.3,0.7,0.7
						S530.4,457.7,530,457.7z"/>
					<path class="st3" d="M533.1,452.5h-32.9c-0.4,0-0.7-0.3-0.7-0.7c0-0.4,0.3-0.7,0.7-0.7h32.9c0.4,0,0.7,0.3,0.7,0.7
						C533.7,452.3,533.4,452.5,533.1,452.5z"/>
					<path class="st3" d="M536.1,447.4h-32.9c-0.4,0-0.7-0.3-0.7-0.7s0.3-0.7,0.7-0.7h32.9c0.4,0,0.7,0.3,0.7,0.7
						S536.5,447.4,536.1,447.4z"/>
					<path class="st3" d="M539.1,442.2h-32.9c-0.4,0-0.7-0.3-0.7-0.7s0.3-0.7,0.7-0.7h32.9c0.4,0,0.7,0.3,0.7,0.7
						S539.5,442.2,539.1,442.2z"/>
					<path class="st3" d="M542.2,437h-32.9c-0.4,0-0.7-0.3-0.7-0.7s0.3-0.7,0.7-0.7h32.9c0.4,0,0.7,0.3,0.7,0.7S542.5,437,542.2,437
						z"/>
					<path class="st3" d="M545.2,431.9h-32.9c-0.4,0-0.7-0.3-0.7-0.7c0-0.4,0.3-0.7,0.7-0.7h32.9c0.4,0,0.7,0.3,0.7,0.7
						C545.9,431.6,545.6,431.9,545.2,431.9z"/>
					<path class="st3" d="M548.3,426.7h-32.9c-0.4,0-0.7-0.3-0.7-0.7c0-0.4,0.3-0.7,0.7-0.7h32.9c0.4,0,0.7,0.3,0.7,0.7
						C548.9,426.4,548.6,426.7,548.3,426.7z"/>
					<path class="st3" d="M551.3,421.5h-32.9c-0.4,0-0.7-0.3-0.7-0.7s0.3-0.7,0.7-0.7h32.9c0.4,0,0.7,0.3,0.7,0.7
						S551.7,421.5,551.3,421.5z"/>
					<path class="st3" d="M554.3,416.4h-32.9c-0.4,0-0.7-0.3-0.7-0.7c0-0.4,0.3-0.7,0.7-0.7h32.9c0.4,0,0.7,0.3,0.7,0.7
						C555,416.1,554.7,416.4,554.3,416.4z"/>
					<path class="st3" d="M557.4,411.2h-32.9c-0.4,0-0.7-0.3-0.7-0.7c0-0.4,0.3-0.7,0.7-0.7h32.9c0.4,0,0.7,0.3,0.7,0.7
						C558,410.9,557.7,411.2,557.4,411.2z"/>
					<path class="st3" d="M560.4,406.1h-32.9c-0.4,0-0.7-0.3-0.7-0.7s0.3-0.7,0.7-0.7h32.9c0.4,0,0.7,0.3,0.7,0.7
						S560.8,406.1,560.4,406.1z"/>
					<path class="st3" d="M563.5,400.9h-32.9c-0.4,0-0.7-0.3-0.7-0.7s0.3-0.7,0.7-0.7h32.9c0.4,0,0.7,0.3,0.7,0.7
						S563.8,400.9,563.5,400.9z"/>
					<path class="st3" d="M566.5,395.7h-32.9c-0.4,0-0.7-0.3-0.7-0.7s0.3-0.7,0.7-0.7h32.9c0.4,0,0.7,0.3,0.7,0.7
						S566.9,395.7,566.5,395.7z"/>
					<path class="st3" d="M569.5,390.6h-32.9c-0.4,0-0.7-0.3-0.7-0.7s0.3-0.7,0.7-0.7h32.9c0.4,0,0.7,0.3,0.7,0.7
						S569.9,390.6,569.5,390.6z"/>
					<path class="st3" d="M572.6,385.4h-32.9c-0.4,0-0.7-0.3-0.7-0.7c0-0.4,0.3-0.7,0.7-0.7h32.9c0.4,0,0.7,0.3,0.7,0.7
						C573.2,385.1,572.9,385.4,572.6,385.4z"/>
					<path class="st3" d="M575.6,380.2h-32.9c-0.4,0-0.7-0.3-0.7-0.7s0.3-0.7,0.7-0.7h32.9c0.4,0,0.7,0.3,0.7,0.7
						S576,380.2,575.6,380.2z"/>
				</g>
			</g>
		</g>
		<g>
			<g>
				<path class="st3" d="M1439.3,586.4h-184.2l-53.4-159.2h142.5l0.4,0.6L1439.3,586.4z M1256.9,583.8h177.8l-92-154h-137.4
					L1256.9,583.8z"/>
				<path class="st3" d="M1416,547.5h-73.6l-0.4-0.7l-43.5-92.1h62L1416,547.5z M1344,544.9h67.4l-52.4-87.7h-56.4L1344,544.9z"/>
				<path class="st3" d="M1254.8,498.1c0.7,1.9,4.1,3.4,7.6,3.4c3.5,0,5.7-1.5,5-3.4c-0.7-1.8-4.2-3.3-7.6-3.3
					C1256.3,494.8,1254,496.3,1254.8,498.1z"/>
				<path class="st3" d="M1241.5,537.9l-2.2-0.4c-32.5-6-57.5-21.7-62.1-39.1l0,0c-1.6-6-0.7-11.7,2.6-16.9
					c5.8-9.1,18.3-15.9,35.2-19.1l1.1-0.2L1241.5,537.9z M1179.8,497.8c4.3,16.1,27.4,30.7,57.9,36.8l-23.2-69.3
					c-15.4,3.1-27.2,9.5-32.4,17.7C1179.2,487.6,1178.4,492.6,1179.8,497.8L1179.8,497.8z"/>
			</g>
			<g>
				<g>
					<path class="st3" d="M1463.2,533.3c-0.4,0-0.9-0.2-1.1-0.6l-52.7-88.6c-0.4-0.6-0.2-1.4,0.5-1.8c0.6-0.4,1.4-0.2,1.8,0.5
						l52.7,88.6c0.4,0.6,0.2,1.4-0.5,1.8C1463.6,533.2,1463.4,533.3,1463.2,533.3z"/>
					<path class="st3" d="M1410.5,458.1h-49.8c-0.7,0-1.3-0.6-1.3-1.3s0.6-1.3,1.3-1.3h48.5v-12l-17.2-64.8h-31.3
						c-0.7,0-1.3-0.6-1.3-1.3s0.6-1.3,1.3-1.3h32.3c0.6,0,1.1,0.4,1.3,1l17.5,66c0,0.1,0,0.2,0,0.3v13.5
						C1411.8,457.5,1411.2,458.1,1410.5,458.1z"/>
					<path class="st3" d="M1413.4,546.7c-0.7,0-1.3-0.6-1.3-1.3v-77.7l-50-85.5v75.7c0,0.7-0.6,1.3-1.3,1.3s-1.3-0.6-1.3-1.3v-80.5
						c0-0.6,0.4-1.1,1-1.3c0.6-0.2,1.2,0.1,1.5,0.6l52.6,89.9c0.1,0.2,0.2,0.4,0.2,0.7v78.1C1414.7,546.1,1414.1,546.7,1413.4,546.7
						z"/>
					<path class="st3" d="M1463.2,546.7h-49.8c-0.7,0-1.3-0.6-1.3-1.3s0.6-1.3,1.3-1.3h48.5v-12l-17.2-63.5h-31.3
						c-0.7,0-1.3-0.6-1.3-1.3c0-0.7,0.6-1.3,1.3-1.3h32.3c0.6,0,1.1,0.4,1.3,1l17.5,64.6c0,0.1,0,0.2,0,0.3v13.5
						C1464.5,546.1,1463.9,546.7,1463.2,546.7z"/>
					<path class="st3" d="M1445.7,468.6c-0.4,0-0.9-0.2-1.1-0.6l-52.7-89.9c-0.4-0.6-0.2-1.4,0.5-1.8c0.6-0.4,1.4-0.2,1.8,0.5
						l52.7,89.9c0.4,0.6,0.2,1.4-0.5,1.8C1446.1,468.6,1445.9,468.6,1445.7,468.6z"/>
					<g>
						<g>
							<path class="st3" d="M1409.9,449.3h-49.4c-0.2,0-0.3-0.1-0.3-0.3c0-0.2,0.1-0.3,0.3-0.3h49.4c0.2,0,0.3,0.1,0.3,0.3
								C1410.2,449.2,1410.1,449.3,1409.9,449.3z"/>
							<path class="st3" d="M1409.9,442.6h-49.4c-0.2,0-0.3-0.1-0.3-0.3c0-0.2,0.1-0.3,0.3-0.3h49.4c0.2,0,0.3,0.1,0.3,0.3
								C1410.2,442.5,1410.1,442.6,1409.9,442.6z"/>
							<path class="st3" d="M1408.8,435.9h-48.3c-0.2,0-0.3-0.1-0.3-0.3c0-0.2,0.1-0.3,0.3-0.3h48.3c0.2,0,0.3,0.1,0.3,0.3
								C1409.1,435.7,1408.9,435.9,1408.8,435.9z"/>
							<path class="st3" d="M1406.3,429.1h-45.8c-0.2,0-0.3-0.1-0.3-0.3c0-0.2,0.1-0.3,0.3-0.3h45.8c0.2,0,0.3,0.1,0.3,0.3
								C1406.6,429,1406.5,429.1,1406.3,429.1z"/>
							<path class="st3" d="M1404.8,422.4h-44.3c-0.2,0-0.3-0.1-0.3-0.3c0-0.2,0.1-0.3,0.3-0.3h44.3c0.2,0,0.3,0.1,0.3,0.3
								C1405.1,422.2,1405,422.4,1404.8,422.4z"/>
							<path class="st3" d="M1403,415.7h-42.5c-0.2,0-0.3-0.1-0.3-0.3c0-0.2,0.1-0.3,0.3-0.3h42.5c0.2,0,0.3,0.1,0.3,0.3
								C1403.3,415.5,1403.2,415.7,1403,415.7z"/>
							<path class="st3" d="M1400.9,408.9h-40.4c-0.2,0-0.3-0.1-0.3-0.3c0-0.2,0.1-0.3,0.3-0.3h40.4c0.2,0,0.3,0.1,0.3,0.3
								C1401.2,408.8,1401,408.9,1400.9,408.9z"/>
							<path class="st3" d="M1399.2,402.2h-38.7c-0.2,0-0.3-0.1-0.3-0.3c0-0.2,0.1-0.3,0.3-0.3h38.7c0.2,0,0.3,0.1,0.3,0.3
								C1399.6,402,1399.4,402.2,1399.2,402.2z"/>
							<path class="st3" d="M1397.7,395.4h-37.3c-0.2,0-0.3-0.1-0.3-0.3c0-0.2,0.1-0.3,0.3-0.3h37.3c0.2,0,0.3,0.1,0.3,0.3
								C1398.1,395.3,1397.9,395.4,1397.7,395.4z"/>
							<path class="st3" d="M1395.8,388.7h-35.3c-0.2,0-0.3-0.1-0.3-0.3c0-0.2,0.1-0.3,0.3-0.3h35.3c0.2,0,0.3,0.1,0.3,0.3
								C1396.1,388.6,1396,388.7,1395.8,388.7z"/>
							<path class="st3" d="M1394.1,382h-33.6c-0.2,0-0.3-0.1-0.3-0.3c0-0.2,0.1-0.3,0.3-0.3h33.6c0.2,0,0.3,0.1,0.3,0.3
								C1394.5,381.8,1394.3,382,1394.1,382z"/>
							<path class="st3" d="M1367.8,455.8c-0.2,0-0.3-0.1-0.3-0.3v-77c0-0.2,0.1-0.3,0.3-0.3c0.2,0,0.3,0.1,0.3,0.3v77
								C1368.1,455.7,1368,455.8,1367.8,455.8z"/>
							<path class="st3" d="M1374.8,455.8c-0.2,0-0.3-0.1-0.3-0.3v-77c0-0.2,0.1-0.3,0.3-0.3c0.2,0,0.3,0.1,0.3,0.3v77
								C1375.2,455.7,1375,455.8,1374.8,455.8z"/>
							<path class="st3" d="M1381.9,455.8c-0.2,0-0.3-0.1-0.3-0.3v-77c0-0.2,0.1-0.3,0.3-0.3c0.2,0,0.3,0.1,0.3,0.3v77
								C1382.2,455.7,1382.1,455.8,1381.9,455.8z"/>
							<path class="st3" d="M1388.9,455.8c-0.2,0-0.3-0.1-0.3-0.3v-77c0-0.2,0.1-0.3,0.3-0.3c0.2,0,0.3,0.1,0.3,0.3v77
								C1389.2,455.7,1389.1,455.8,1388.9,455.8z"/>
							<path class="st3" d="M1395.9,455.8c-0.2,0-0.3-0.1-0.3-0.3v-67.1c0-0.2,0.1-0.3,0.3-0.3c0.2,0,0.3,0.1,0.3,0.3v67.1
								C1396.3,455.7,1396.1,455.8,1395.9,455.8z"/>
							<path class="st3" d="M1403,455.8c-0.2,0-0.3-0.1-0.3-0.3v-37.8c0-0.2,0.1-0.3,0.3-0.3c0.2,0,0.3,0.1,0.3,0.3v37.8
								C1403.3,455.7,1403.2,455.8,1403,455.8z"/>
						</g>
						<path class="st3" d="M1450,483.7c-0.1,0-0.2-0.1-0.3-0.2l-52.7-89.9c-0.1-0.2,0-0.4,0.1-0.4c0.2-0.1,0.4,0,0.4,0.1l52.7,89.9
							c0.1,0.2,0,0.4-0.1,0.4C1450.1,483.6,1450.1,483.7,1450,483.7z"/>
						<path class="st3" d="M1453.1,498c-0.1,0-0.2-0.1-0.3-0.2l-52.7-89.9c-0.1-0.2,0-0.4,0.1-0.4c0.2-0.1,0.4,0,0.4,0.1l52.7,89.9
							c0.1,0.2,0,0.4-0.1,0.4C1453.3,498,1453.2,498,1453.1,498z"/>
						<path class="st3" d="M1456.3,512.4c-0.1,0-0.2-0.1-0.3-0.2l-52.7-89.9c-0.1-0.2,0-0.4,0.1-0.4c0.2-0.1,0.4,0,0.4,0.1
							l52.7,89.9c0.1,0.2,0,0.4-0.1,0.4C1456.4,512.3,1456.3,512.4,1456.3,512.4z"/>
						<g>
							<path class="st3" d="M1462.8,539.2h-49.4c-0.2,0-0.3-0.1-0.3-0.3c0-0.2,0.1-0.3,0.3-0.3h49.4c0.2,0,0.3,0.1,0.3,0.3
								C1463.1,539,1463,539.2,1462.8,539.2z"/>
							<path class="st3" d="M1462.8,532.4h-49.4c-0.2,0-0.3-0.1-0.3-0.3c0-0.2,0.1-0.3,0.3-0.3h49.4c0.2,0,0.3,0.1,0.3,0.3
								C1463.1,532.3,1463,532.4,1462.8,532.4z"/>
							<path class="st3" d="M1461.6,525.7h-48.3c-0.2,0-0.3-0.1-0.3-0.3c0-0.2,0.1-0.3,0.3-0.3h48.3c0.2,0,0.3,0.1,0.3,0.3
								C1462,525.5,1461.8,525.7,1461.6,525.7z"/>
							<path class="st3" d="M1459.2,519h-45.8c-0.2,0-0.3-0.1-0.3-0.3c0-0.2,0.1-0.3,0.3-0.3h45.8c0.2,0,0.3,0.1,0.3,0.3
								C1459.5,518.8,1459.4,519,1459.2,519z"/>
							<path class="st3" d="M1457.7,512.2h-44.3c-0.2,0-0.3-0.1-0.3-0.3c0-0.2,0.1-0.3,0.3-0.3h44.3c0.2,0,0.3,0.1,0.3,0.3
								C1458,512.1,1457.9,512.2,1457.7,512.2z"/>
							<path class="st3" d="M1455.9,505.5h-42.5c-0.2,0-0.3-0.1-0.3-0.3c0-0.2,0.1-0.3,0.3-0.3h42.5c0.2,0,0.3,0.1,0.3,0.3
								C1456.2,505.3,1456.1,505.5,1455.9,505.5z"/>
							<path class="st3" d="M1453.8,498.7h-40.4c-0.2,0-0.3-0.1-0.3-0.3c0-0.2,0.1-0.3,0.3-0.3h40.4c0.2,0,0.3,0.1,0.3,0.3
								C1454.1,498.6,1453.9,498.7,1453.8,498.7z"/>
							<path class="st3" d="M1452.1,492h-38.7c-0.2,0-0.3-0.1-0.3-0.3c0-0.2,0.1-0.3,0.3-0.3h38.7c0.2,0,0.3,0.1,0.3,0.3
								C1452.4,491.9,1452.3,492,1452.1,492z"/>
							<path class="st3" d="M1450.6,485.3h-37.3c-0.2,0-0.3-0.1-0.3-0.3c0-0.2,0.1-0.3,0.3-0.3h37.3c0.2,0,0.3,0.1,0.3,0.3
								C1451,485.1,1450.8,485.3,1450.6,485.3z"/>
							<path class="st3" d="M1448.7,478.5h-35.3c-0.2,0-0.3-0.1-0.3-0.3c0-0.2,0.1-0.3,0.3-0.3h35.3c0.2,0,0.3,0.1,0.3,0.3
								C1449,478.4,1448.8,478.5,1448.7,478.5z"/>
							<path class="st3" d="M1447,471.8h-33.6c-0.2,0-0.3-0.1-0.3-0.3c0-0.2,0.1-0.3,0.3-0.3h33.6c0.2,0,0.3,0.1,0.3,0.3
								C1447.4,471.7,1447.2,471.8,1447,471.8z"/>
							<path class="st3" d="M1420.7,545.7c-0.2,0-0.3-0.1-0.3-0.3v-77c0-0.2,0.1-0.3,0.3-0.3c0.2,0,0.3,0.1,0.3,0.3v77
								C1421,545.5,1420.9,545.7,1420.7,545.7z"/>
							<path class="st3" d="M1427.7,545.7c-0.2,0-0.3-0.1-0.3-0.3v-77c0-0.2,0.1-0.3,0.3-0.3c0.2,0,0.3,0.1,0.3,0.3v77
								C1428.1,545.5,1427.9,545.7,1427.7,545.7z"/>
							<path class="st3" d="M1434.8,545.7c-0.2,0-0.3-0.1-0.3-0.3v-77c0-0.2,0.1-0.3,0.3-0.3c0.2,0,0.3,0.1,0.3,0.3v77
								C1435.1,545.5,1435,545.7,1434.8,545.7z"/>
							<path class="st3" d="M1441.8,545.7c-0.2,0-0.3-0.1-0.3-0.3v-77c0-0.2,0.1-0.3,0.3-0.3c0.2,0,0.3,0.1,0.3,0.3v77
								C1442.1,545.5,1442,545.7,1441.8,545.7z"/>
							<path class="st3" d="M1448.8,545.7c-0.2,0-0.3-0.1-0.3-0.3v-67.1c0-0.2,0.1-0.3,0.3-0.3c0.2,0,0.3,0.1,0.3,0.3v67.1
								C1449.2,545.5,1449,545.7,1448.8,545.7z"/>
							<path class="st3" d="M1455.9,545.7c-0.2,0-0.3-0.1-0.3-0.3v-37.8c0-0.2,0.1-0.3,0.3-0.3c0.2,0,0.3,0.1,0.3,0.3v37.8
								C1456.2,545.5,1456,545.7,1455.9,545.7z"/>
						</g>
						<path class="st3" d="M1415.7,451.5c-0.1,0-0.3-0.1-0.3-0.2l-14.3-58.4c0-0.2,0.1-0.4,0.2-0.4c0.2,0,0.4,0.1,0.4,0.2l14.3,58.4
							C1416,451.3,1415.9,451.5,1415.7,451.5C1415.7,451.5,1415.7,451.5,1415.7,451.5z"/>
						<path class="st3" d="M1421.6,461.3c-0.1,0-0.3-0.1-0.3-0.2l-14.3-58.4c0-0.2,0.1-0.4,0.2-0.4c0.2,0,0.4,0.1,0.4,0.2l14.3,58.4
							C1421.9,461.1,1421.8,461.3,1421.6,461.3C1421.6,461.3,1421.6,461.3,1421.6,461.3z"/>
						<path class="st3" d="M1427.5,471.1c-0.1,0-0.3-0.1-0.3-0.2l-14.3-58.4c0-0.2,0.1-0.4,0.2-0.4c0.2-0.1,0.4,0.1,0.4,0.2
							l14.3,58.4C1427.8,470.9,1427.7,471.1,1427.5,471.1C1427.5,471.1,1427.5,471.1,1427.5,471.1z"/>
						<path class="st3" d="M1433.4,480.9c-0.1,0-0.3-0.1-0.3-0.2l-14.3-58.4c0-0.2,0.1-0.4,0.2-0.4c0.2-0.1,0.4,0.1,0.4,0.2
							l14.3,58.4C1433.7,480.7,1433.6,480.9,1433.4,480.9C1433.4,480.9,1433.4,480.9,1433.4,480.9z"/>
						<path class="st3" d="M1439.3,490.7c-0.1,0-0.3-0.1-0.3-0.2l-14.3-58.4c0-0.2,0.1-0.4,0.2-0.4c0.2-0.1,0.4,0.1,0.4,0.2
							l14.3,58.4C1439.7,490.5,1439.5,490.6,1439.3,490.7C1439.3,490.7,1439.3,490.7,1439.3,490.7z"/>
						<path class="st3" d="M1445.2,500.5c-0.1,0-0.3-0.1-0.3-0.2l-14.3-58.4c0-0.2,0.1-0.4,0.2-0.4c0.2,0,0.4,0.1,0.4,0.2l14.3,58.4
							C1445.6,500.3,1445.5,500.4,1445.2,500.5C1445.2,500.5,1445.2,500.5,1445.2,500.5z"/>
						<path class="st3" d="M1451.1,510.3c-0.1,0-0.3-0.1-0.3-0.2l-14.3-58.4c0-0.2,0.1-0.4,0.2-0.4c0.2-0.1,0.4,0.1,0.4,0.2
							l14.3,58.4C1451.5,510.1,1451.4,510.2,1451.1,510.3C1451.2,510.3,1451.1,510.3,1451.1,510.3z"/>
					</g>
					<path class="st3" d="M1419.7,467.7c-0.1,0-0.2-0.1-0.3-0.2l-52.6-89.9c-0.1-0.2,0-0.4,0.1-0.4c0.2-0.1,0.4,0,0.4,0.1l52.6,89.9
						c0.1,0.2,0,0.4-0.1,0.4C1419.9,467.6,1419.8,467.7,1419.7,467.7z"/>
					<path class="st3" d="M1426.4,467.7c-0.1,0-0.2-0.1-0.3-0.2l-52.6-89.9c-0.1-0.2,0-0.4,0.1-0.4c0.2-0.1,0.4,0,0.4,0.1l52.6,89.9
						c0.1,0.2,0,0.4-0.1,0.4C1426.5,467.6,1426.5,467.7,1426.4,467.7z"/>
					<path class="st3" d="M1433.1,467.7c-0.1,0-0.2-0.1-0.3-0.2l-52.6-89.9c-0.1-0.2,0-0.4,0.1-0.4c0.2-0.1,0.4,0,0.4,0.1l52.6,89.9
						c0.1,0.2,0,0.4-0.1,0.4C1433.2,467.6,1433.2,467.7,1433.1,467.7z"/>
					<path class="st3" d="M1439.8,467.7c-0.1,0-0.2-0.1-0.3-0.2l-52.6-89.9c-0.1-0.2,0-0.4,0.1-0.4c0.2-0.1,0.4,0,0.4,0.1l52.6,89.9
						c0.1,0.2,0,0.4-0.1,0.4C1439.9,467.6,1439.9,467.7,1439.8,467.7z"/>
				</g>
				<g>
					<path class="st3" d="M1443.1,462.9h-32.9c-0.4,0-0.7-0.3-0.7-0.7s0.3-0.7,0.7-0.7h32.9c0.4,0,0.7,0.3,0.7,0.7
						S1443.5,462.9,1443.1,462.9z"/>
					<path class="st3" d="M1440.1,457.7h-32.9c-0.4,0-0.7-0.3-0.7-0.7s0.3-0.7,0.7-0.7h32.9c0.4,0,0.7,0.3,0.7,0.7
						S1440.4,457.7,1440.1,457.7z"/>
					<path class="st3" d="M1437,452.5h-32.9c-0.4,0-0.7-0.3-0.7-0.7c0-0.4,0.3-0.7,0.7-0.7h32.9c0.4,0,0.7,0.3,0.7,0.7
						C1437.7,452.3,1437.4,452.5,1437,452.5z"/>
					<path class="st3" d="M1434,447.4h-32.9c-0.4,0-0.7-0.3-0.7-0.7s0.3-0.7,0.7-0.7h32.9c0.4,0,0.7,0.3,0.7,0.7
						S1434.4,447.4,1434,447.4z"/>
					<path class="st3" d="M1431,442.2h-32.9c-0.4,0-0.7-0.3-0.7-0.7s0.3-0.7,0.7-0.7h32.9c0.4,0,0.7,0.3,0.7,0.7
						S1431.3,442.2,1431,442.2z"/>
					<path class="st3" d="M1427.9,437H1395c-0.4,0-0.7-0.3-0.7-0.7s0.3-0.7,0.7-0.7h32.9c0.4,0,0.7,0.3,0.7,0.7
						S1428.3,437,1427.9,437z"/>
					<path class="st3" d="M1424.9,431.9H1392c-0.4,0-0.7-0.3-0.7-0.7c0-0.4,0.3-0.7,0.7-0.7h32.9c0.4,0,0.7,0.3,0.7,0.7
						C1425.5,431.6,1425.2,431.9,1424.9,431.9z"/>
					<path class="st3" d="M1421.8,426.7h-32.9c-0.4,0-0.7-0.3-0.7-0.7c0-0.4,0.3-0.7,0.7-0.7h32.9c0.4,0,0.7,0.3,0.7,0.7
						C1422.5,426.4,1422.2,426.7,1421.8,426.7z"/>
					<path class="st3" d="M1418.8,421.5h-32.9c-0.4,0-0.7-0.3-0.7-0.7s0.3-0.7,0.7-0.7h32.9c0.4,0,0.7,0.3,0.7,0.7
						S1419.1,421.5,1418.8,421.5z"/>
					<path class="st3" d="M1415.7,416.4h-32.9c-0.4,0-0.7-0.3-0.7-0.7c0-0.4,0.3-0.7,0.7-0.7h32.9c0.4,0,0.7,0.3,0.7,0.7
						C1416.4,416.1,1416.1,416.4,1415.7,416.4z"/>
					<path class="st3" d="M1412.7,411.2h-32.9c-0.4,0-0.7-0.3-0.7-0.7c0-0.4,0.3-0.7,0.7-0.7h32.9c0.4,0,0.7,0.3,0.7,0.7
						C1413.4,410.9,1413.1,411.2,1412.7,411.2z"/>
					<path class="st3" d="M1409.7,406.1h-32.9c-0.4,0-0.7-0.3-0.7-0.7s0.3-0.7,0.7-0.7h32.9c0.4,0,0.7,0.3,0.7,0.7
						S1410,406.1,1409.7,406.1z"/>
					<path class="st3" d="M1406.6,400.9h-32.9c-0.4,0-0.7-0.3-0.7-0.7s0.3-0.7,0.7-0.7h32.9c0.4,0,0.7,0.3,0.7,0.7
						S1407,400.9,1406.6,400.9z"/>
					<path class="st3" d="M1403.6,395.7h-32.9c-0.4,0-0.7-0.3-0.7-0.7s0.3-0.7,0.7-0.7h32.9c0.4,0,0.7,0.3,0.7,0.7
						S1403.9,395.7,1403.6,395.7z"/>
					<path class="st3" d="M1400.5,390.6h-32.9c-0.4,0-0.7-0.3-0.7-0.7s0.3-0.7,0.7-0.7h32.9c0.4,0,0.7,0.3,0.7,0.7
						S1400.9,390.6,1400.5,390.6z"/>
					<path class="st3" d="M1397.5,385.4h-32.9c-0.4,0-0.7-0.3-0.7-0.7c0-0.4,0.3-0.7,0.7-0.7h32.9c0.4,0,0.7,0.3,0.7,0.7
						C1398.2,385.1,1397.9,385.4,1397.5,385.4z"/>
					<path class="st3" d="M1394.5,380.2h-32.9c-0.4,0-0.7-0.3-0.7-0.7s0.3-0.7,0.7-0.7h32.9c0.4,0,0.7,0.3,0.7,0.7
						S1394.8,380.2,1394.5,380.2z"/>
				</g>
			</g>
		</g>
		<ellipse class="st3" cx="968.5" cy="500.2" rx="7.3" ry="6.1"/>
	</g>
	<g>
		<g>
			<radialGradient id="SVGID_2_" cx="459.7519" cy="635.5639" r="7.179" gradientUnits="userSpaceOnUse">
				<stop  offset="0" style="stop-color:#EBB34A"/>
				<stop  offset="1" style="stop-color:#D39423"/>
			</radialGradient>
			<polygon class="st4" points="451.6,629.5 467.9,634.7 451.9,641.6 			"/>
			<path class="st3" d="M451.7,665.9c-0.6,0-1.1-0.5-1.1-1.1v-35.7c0-0.6,0.5-1.1,1.1-1.1s1.1,0.5,1.1,1.1v35.7
				C452.8,665.4,452.3,665.9,451.7,665.9z"/>
		</g>
		<g>
			<radialGradient id="SVGID_3_" cx="626.7382" cy="357.2533" r="7.1789" gradientUnits="userSpaceOnUse">
				<stop  offset="0" style="stop-color:#EBB34A"/>
				<stop  offset="1" style="stop-color:#D39423"/>
			</radialGradient>
			<polygon class="st5" points="618.6,351.2 634.9,356.4 618.9,363.3 			"/>
			<path class="st3" d="M618.7,387.6c-0.6,0-1.1-0.5-1.1-1.1v-35.7c0-0.6,0.5-1.1,1.1-1.1c0.6,0,1.1,0.5,1.1,1.1v35.7
				C619.8,387.1,619.3,387.6,618.7,387.6z"/>
		</g>
	</g>
	<g>
		<g>
			<radialGradient id="SVGID_4_" cx="1492.9139" cy="635.5639" r="7.179" gradientUnits="userSpaceOnUse">
				<stop  offset="0" style="stop-color:#EBB34A"/>
				<stop  offset="1" style="stop-color:#D39423"/>
			</radialGradient>
			<polygon class="st6" points="1484.7,629.5 1501.1,634.7 1485,641.6 			"/>
			<path class="st3" d="M1484.9,665.9c-0.6,0-1.1-0.5-1.1-1.1v-35.7c0-0.6,0.5-1.1,1.1-1.1c0.6,0,1.1,0.5,1.1,1.1v35.7
				C1485.9,665.4,1485.5,665.9,1484.9,665.9z"/>
		</g>
		<g>
			<radialGradient id="SVGID_5_" cx="1325.2303" cy="357.2533" r="7.1789" gradientUnits="userSpaceOnUse">
				<stop  offset="0" style="stop-color:#EBB34A"/>
				<stop  offset="1" style="stop-color:#D39423"/>
			</radialGradient>
			<polygon class="st7" points="1317.1,351.2 1333.4,356.4 1317.4,363.3 			"/>
			<path class="st3" d="M1317.2,387.6c-0.6,0-1.1-0.5-1.1-1.1v-35.7c0-0.6,0.5-1.1,1.1-1.1c0.6,0,1.1,0.5,1.1,1.1v35.7
				C1318.3,387.1,1317.8,387.6,1317.2,387.6z"/>
		</g>
	</g>
</g>
</svg>
